<mxfile host="app.diagrams.net" agent="Mozilla/5.0 (Macintosh; Intel Mac OS X 10_15_7) AppleWebKit/537.36 (KHTML, like Gecko) Chrome/133.0.0.0 Safari/537.36" version="26.0.14">
  <diagram name="第 1 页" id="PBiSvj02ZwGFLbJFOlg2">
    <mxGraphModel dx="1242" dy="785" grid="1" gridSize="10" guides="1" tooltips="1" connect="1" arrows="1" fold="1" page="1" pageScale="1" pageWidth="827" pageHeight="1169" math="0" shadow="0">
      <root>
        <mxCell id="0" />
        <mxCell id="1" parent="0" />
        <mxCell id="-dpQ9DcZk-ZlWBwGZ1cP-35" style="edgeStyle=orthogonalEdgeStyle;rounded=0;orthogonalLoop=1;jettySize=auto;html=1;" parent="1" source="-dpQ9DcZk-ZlWBwGZ1cP-1" target="-dpQ9DcZk-ZlWBwGZ1cP-2" edge="1">
          <mxGeometry relative="1" as="geometry" />
        </mxCell>
        <mxCell id="-dpQ9DcZk-ZlWBwGZ1cP-36" style="edgeStyle=orthogonalEdgeStyle;rounded=0;orthogonalLoop=1;jettySize=auto;html=1;" parent="1" source="-dpQ9DcZk-ZlWBwGZ1cP-1" target="-dpQ9DcZk-ZlWBwGZ1cP-3" edge="1">
          <mxGeometry relative="1" as="geometry" />
        </mxCell>
        <mxCell id="-dpQ9DcZk-ZlWBwGZ1cP-41" style="edgeStyle=orthogonalEdgeStyle;rounded=0;orthogonalLoop=1;jettySize=auto;html=1;" parent="1" source="-dpQ9DcZk-ZlWBwGZ1cP-1" target="-dpQ9DcZk-ZlWBwGZ1cP-40" edge="1">
          <mxGeometry relative="1" as="geometry" />
        </mxCell>
        <mxCell id="-dpQ9DcZk-ZlWBwGZ1cP-1" value="&lt;span style=&quot;font-size: 18px;&quot;&gt;&lt;b&gt;微端&lt;/b&gt;&lt;/span&gt;" style="ellipse;whiteSpace=wrap;html=1;aspect=fixed;" parent="1" vertex="1">
          <mxGeometry x="390" y="360" width="70" height="70" as="geometry" />
        </mxCell>
        <mxCell id="-dpQ9DcZk-ZlWBwGZ1cP-60" style="edgeStyle=orthogonalEdgeStyle;rounded=0;orthogonalLoop=1;jettySize=auto;html=1;entryX=1;entryY=0.5;entryDx=0;entryDy=0;exitX=0.5;exitY=0;exitDx=0;exitDy=0;" parent="1" source="-dpQ9DcZk-ZlWBwGZ1cP-2" target="-dpQ9DcZk-ZlWBwGZ1cP-17" edge="1">
          <mxGeometry relative="1" as="geometry" />
        </mxCell>
        <mxCell id="-dpQ9DcZk-ZlWBwGZ1cP-61" style="edgeStyle=orthogonalEdgeStyle;rounded=0;orthogonalLoop=1;jettySize=auto;html=1;entryX=1;entryY=0.5;entryDx=0;entryDy=0;exitX=0.5;exitY=1;exitDx=0;exitDy=0;" parent="1" source="-dpQ9DcZk-ZlWBwGZ1cP-2" target="-dpQ9DcZk-ZlWBwGZ1cP-21" edge="1">
          <mxGeometry relative="1" as="geometry" />
        </mxCell>
        <mxCell id="-dpQ9DcZk-ZlWBwGZ1cP-2" value="&lt;font style=&quot;font-size: 16px;&quot;&gt;AssetManager&lt;/font&gt;" style="rounded=1;whiteSpace=wrap;html=1;fillColor=#f0a30a;strokeColor=#BD7000;fontColor=#000000;" parent="1" vertex="1">
          <mxGeometry x="210" y="365" width="120" height="60" as="geometry" />
        </mxCell>
        <mxCell id="-dpQ9DcZk-ZlWBwGZ1cP-67" style="edgeStyle=orthogonalEdgeStyle;rounded=0;orthogonalLoop=1;jettySize=auto;html=1;entryX=0;entryY=0.5;entryDx=0;entryDy=0;exitX=0.5;exitY=0;exitDx=0;exitDy=0;" parent="1" source="-dpQ9DcZk-ZlWBwGZ1cP-3" target="-dpQ9DcZk-ZlWBwGZ1cP-6" edge="1">
          <mxGeometry relative="1" as="geometry" />
        </mxCell>
        <mxCell id="-dpQ9DcZk-ZlWBwGZ1cP-68" style="edgeStyle=orthogonalEdgeStyle;rounded=0;orthogonalLoop=1;jettySize=auto;html=1;entryX=0;entryY=0.75;entryDx=0;entryDy=0;exitX=0.5;exitY=1;exitDx=0;exitDy=0;" parent="1" source="-dpQ9DcZk-ZlWBwGZ1cP-3" edge="1">
          <mxGeometry relative="1" as="geometry">
            <mxPoint x="707" y="490" as="targetPoint" />
          </mxGeometry>
        </mxCell>
        <mxCell id="-dpQ9DcZk-ZlWBwGZ1cP-3" value="&lt;span style=&quot;font-size: 16px;&quot;&gt;ClassLoader&lt;/span&gt;" style="rounded=1;whiteSpace=wrap;html=1;fillColor=#f0a30a;strokeColor=#BD7000;fontColor=#000000;" parent="1" vertex="1">
          <mxGeometry x="526" y="365" width="120" height="60" as="geometry" />
        </mxCell>
        <mxCell id="-dpQ9DcZk-ZlWBwGZ1cP-8" value="" style="group" parent="1" vertex="1" connectable="0">
          <mxGeometry x="701" y="270" width="120" height="90" as="geometry" />
        </mxCell>
        <mxCell id="-dpQ9DcZk-ZlWBwGZ1cP-6" value="" style="rounded=0;whiteSpace=wrap;html=1;fillColor=#fad7ac;strokeColor=#b46504;" parent="-dpQ9DcZk-ZlWBwGZ1cP-8" vertex="1">
          <mxGeometry width="120" height="90" as="geometry" />
        </mxCell>
        <mxCell id="-dpQ9DcZk-ZlWBwGZ1cP-4" value="&lt;font style=&quot;font-size: 14px;&quot;&gt;classes.dex&lt;/font&gt;" style="rounded=0;whiteSpace=wrap;html=1;fillColor=#e3c800;fontColor=#000000;strokeColor=none;" parent="-dpQ9DcZk-ZlWBwGZ1cP-8" vertex="1">
          <mxGeometry x="5" y="40" width="110" height="40" as="geometry" />
        </mxCell>
        <mxCell id="-dpQ9DcZk-ZlWBwGZ1cP-7" value="&lt;font style=&quot;font-size: 18px;&quot;&gt;微端&lt;/font&gt;" style="text;html=1;align=center;verticalAlign=middle;resizable=0;points=[];autosize=1;strokeColor=none;fillColor=none;" parent="-dpQ9DcZk-ZlWBwGZ1cP-8" vertex="1">
          <mxGeometry x="30" width="60" height="40" as="geometry" />
        </mxCell>
        <mxCell id="-dpQ9DcZk-ZlWBwGZ1cP-15" value="" style="group" parent="1" vertex="1" connectable="0">
          <mxGeometry x="702" y="420" width="120" height="140" as="geometry" />
        </mxCell>
        <mxCell id="-dpQ9DcZk-ZlWBwGZ1cP-10" value="" style="rounded=0;whiteSpace=wrap;html=1;fillColor=#fad7ac;strokeColor=#b46504;container=0;" parent="-dpQ9DcZk-ZlWBwGZ1cP-15" vertex="1">
          <mxGeometry width="120" height="110" as="geometry" />
        </mxCell>
        <mxCell id="-dpQ9DcZk-ZlWBwGZ1cP-12" value="&lt;span style=&quot;font-size: 18px;&quot;&gt;游戏&lt;/span&gt;" style="text;html=1;align=center;verticalAlign=middle;resizable=0;points=[];autosize=1;strokeColor=none;fillColor=none;container=0;" parent="-dpQ9DcZk-ZlWBwGZ1cP-15" vertex="1">
          <mxGeometry x="30" width="60" height="40" as="geometry" />
        </mxCell>
        <mxCell id="P3hpPFlZgY3cbZgGFmEt-1" value="&lt;font style=&quot;font-size: 14px;&quot;&gt;classes.dex&lt;/font&gt;" style="rounded=0;whiteSpace=wrap;html=1;fillColor=#e3c800;fontColor=#000000;strokeColor=none;" vertex="1" parent="-dpQ9DcZk-ZlWBwGZ1cP-15">
          <mxGeometry x="5" y="60" width="110" height="40" as="geometry" />
        </mxCell>
        <mxCell id="-dpQ9DcZk-ZlWBwGZ1cP-16" value="" style="group" parent="1" vertex="1" connectable="0">
          <mxGeometry x="18" y="279" width="120" height="90" as="geometry" />
        </mxCell>
        <mxCell id="-dpQ9DcZk-ZlWBwGZ1cP-17" value="" style="rounded=0;whiteSpace=wrap;html=1;fillColor=#fad7ac;strokeColor=#b46504;" parent="-dpQ9DcZk-ZlWBwGZ1cP-16" vertex="1">
          <mxGeometry width="120" height="90" as="geometry" />
        </mxCell>
        <mxCell id="-dpQ9DcZk-ZlWBwGZ1cP-18" value="&lt;span style=&quot;font-size: 14px;&quot;&gt;ResPath&lt;/span&gt;" style="rounded=0;whiteSpace=wrap;html=1;fillColor=#e3c800;fontColor=#000000;strokeColor=none;" parent="-dpQ9DcZk-ZlWBwGZ1cP-16" vertex="1">
          <mxGeometry x="5" y="40" width="110" height="40" as="geometry" />
        </mxCell>
        <mxCell id="-dpQ9DcZk-ZlWBwGZ1cP-19" value="&lt;span style=&quot;font-size: 18px;&quot;&gt;微端&lt;/span&gt;" style="text;html=1;align=center;verticalAlign=middle;resizable=0;points=[];autosize=1;strokeColor=none;fillColor=none;" parent="-dpQ9DcZk-ZlWBwGZ1cP-16" vertex="1">
          <mxGeometry x="30" width="60" height="40" as="geometry" />
        </mxCell>
        <mxCell id="-dpQ9DcZk-ZlWBwGZ1cP-20" value="" style="group" parent="1" vertex="1" connectable="0">
          <mxGeometry x="20" y="440" width="120" height="90" as="geometry" />
        </mxCell>
        <mxCell id="-dpQ9DcZk-ZlWBwGZ1cP-21" value="" style="rounded=0;whiteSpace=wrap;html=1;fillColor=#fad7ac;strokeColor=#b46504;" parent="-dpQ9DcZk-ZlWBwGZ1cP-20" vertex="1">
          <mxGeometry width="120" height="90" as="geometry" />
        </mxCell>
        <mxCell id="-dpQ9DcZk-ZlWBwGZ1cP-22" value="&lt;span style=&quot;font-size: 14px;&quot;&gt;ResPath&lt;/span&gt;" style="rounded=0;whiteSpace=wrap;html=1;fillColor=#e3c800;fontColor=#000000;strokeColor=none;" parent="-dpQ9DcZk-ZlWBwGZ1cP-20" vertex="1">
          <mxGeometry x="5" y="40" width="110" height="40" as="geometry" />
        </mxCell>
        <mxCell id="-dpQ9DcZk-ZlWBwGZ1cP-23" value="&lt;span style=&quot;font-size: 18px;&quot;&gt;游戏&lt;/span&gt;" style="text;html=1;align=center;verticalAlign=middle;resizable=0;points=[];autosize=1;strokeColor=none;fillColor=none;" parent="-dpQ9DcZk-ZlWBwGZ1cP-20" vertex="1">
          <mxGeometry x="30" width="60" height="40" as="geometry" />
        </mxCell>
        <mxCell id="-dpQ9DcZk-ZlWBwGZ1cP-38" value="apk/res" style="text;html=1;align=center;verticalAlign=middle;resizable=0;points=[];autosize=1;strokeColor=none;fillColor=none;" parent="1" vertex="1">
          <mxGeometry x="330" y="368" width="60" height="30" as="geometry" />
        </mxCell>
        <mxCell id="-dpQ9DcZk-ZlWBwGZ1cP-39" value="dex" style="text;html=1;align=center;verticalAlign=middle;resizable=0;points=[];autosize=1;strokeColor=none;fillColor=none;" parent="1" vertex="1">
          <mxGeometry x="470" y="368" width="40" height="30" as="geometry" />
        </mxCell>
        <mxCell id="-dpQ9DcZk-ZlWBwGZ1cP-40" value="&lt;span style=&quot;font-size: 16px;&quot;&gt;DexPathList&lt;/span&gt;" style="rounded=1;whiteSpace=wrap;html=1;fillColor=#f0a30a;strokeColor=#BD7000;fontColor=#000000;" parent="1" vertex="1">
          <mxGeometry x="365" y="480" width="120" height="60" as="geometry" />
        </mxCell>
        <mxCell id="-dpQ9DcZk-ZlWBwGZ1cP-42" value="so" style="text;html=1;align=center;verticalAlign=middle;resizable=0;points=[];autosize=1;strokeColor=none;fillColor=none;" parent="1" vertex="1">
          <mxGeometry x="420" y="440" width="40" height="30" as="geometry" />
        </mxCell>
        <mxCell id="-dpQ9DcZk-ZlWBwGZ1cP-43" value="" style="shape=table;startSize=0;container=1;collapsible=0;childLayout=tableLayout;fontSize=16;" parent="1" vertex="1">
          <mxGeometry x="294" y="600" width="240" height="40" as="geometry" />
        </mxCell>
        <mxCell id="-dpQ9DcZk-ZlWBwGZ1cP-44" value="" style="shape=tableRow;horizontal=0;startSize=0;swimlaneHead=0;swimlaneBody=0;strokeColor=inherit;top=0;left=0;bottom=0;right=0;collapsible=0;dropTarget=0;fillColor=none;points=[[0,0.5],[1,0.5]];portConstraint=eastwest;fontSize=16;" parent="-dpQ9DcZk-ZlWBwGZ1cP-43" vertex="1">
          <mxGeometry width="240" height="40" as="geometry" />
        </mxCell>
        <mxCell id="-dpQ9DcZk-ZlWBwGZ1cP-45" value="First" style="shape=partialRectangle;html=1;whiteSpace=wrap;connectable=0;strokeColor=#B09500;overflow=hidden;fillColor=#e3c800;top=0;left=0;bottom=0;right=0;pointerEvents=1;fontSize=16;fontColor=#000000;" parent="-dpQ9DcZk-ZlWBwGZ1cP-44" vertex="1">
          <mxGeometry width="60" height="40" as="geometry">
            <mxRectangle width="60" height="40" as="alternateBounds" />
          </mxGeometry>
        </mxCell>
        <mxCell id="-dpQ9DcZk-ZlWBwGZ1cP-46" value="LibPath2" style="shape=partialRectangle;html=1;whiteSpace=wrap;connectable=0;strokeColor=#B09500;overflow=hidden;fillColor=#e3c800;top=0;left=0;bottom=0;right=0;pointerEvents=1;fontSize=16;fontColor=#000000;" parent="-dpQ9DcZk-ZlWBwGZ1cP-44" vertex="1">
          <mxGeometry x="60" width="96" height="40" as="geometry">
            <mxRectangle width="96" height="40" as="alternateBounds" />
          </mxGeometry>
        </mxCell>
        <mxCell id="-dpQ9DcZk-ZlWBwGZ1cP-47" value="LibPath3" style="shape=partialRectangle;html=1;whiteSpace=wrap;connectable=0;strokeColor=#B09500;overflow=hidden;fillColor=#e3c800;top=0;left=0;bottom=0;right=0;pointerEvents=1;fontSize=16;fontColor=#000000;" parent="-dpQ9DcZk-ZlWBwGZ1cP-44" vertex="1">
          <mxGeometry x="156" width="84" height="40" as="geometry">
            <mxRectangle width="84" height="40" as="alternateBounds" />
          </mxGeometry>
        </mxCell>
        <mxCell id="-dpQ9DcZk-ZlWBwGZ1cP-56" value="&lt;font style=&quot;font-size: 16px;&quot;&gt;newLibPath&lt;/font&gt;" style="rounded=0;whiteSpace=wrap;html=1;fillColor=#e51400;fontColor=#ffffff;strokeColor=#B20000;" parent="1" vertex="1">
          <mxGeometry x="180" y="530" width="120" height="24" as="geometry" />
        </mxCell>
        <mxCell id="-dpQ9DcZk-ZlWBwGZ1cP-58" style="edgeStyle=orthogonalEdgeStyle;rounded=0;orthogonalLoop=1;jettySize=auto;html=1;entryX=0.142;entryY=0.025;entryDx=0;entryDy=0;entryPerimeter=0;" parent="1" source="-dpQ9DcZk-ZlWBwGZ1cP-56" target="-dpQ9DcZk-ZlWBwGZ1cP-44" edge="1">
          <mxGeometry relative="1" as="geometry" />
        </mxCell>
        <mxCell id="-dpQ9DcZk-ZlWBwGZ1cP-74" style="edgeStyle=orthogonalEdgeStyle;rounded=0;orthogonalLoop=1;jettySize=auto;html=1;endArrow=none;startFill=0;dashed=1;" parent="1" source="-dpQ9DcZk-ZlWBwGZ1cP-73" target="-dpQ9DcZk-ZlWBwGZ1cP-1" edge="1">
          <mxGeometry relative="1" as="geometry" />
        </mxCell>
        <mxCell id="-dpQ9DcZk-ZlWBwGZ1cP-73" value="&lt;font style=&quot;font-size: 18px;&quot;&gt;&lt;b&gt;McGLoader&lt;/b&gt;&lt;/font&gt;" style="rounded=0;whiteSpace=wrap;html=1;" parent="1" vertex="1">
          <mxGeometry x="365" y="219" width="120" height="60" as="geometry" />
        </mxCell>
        <mxCell id="-dpQ9DcZk-ZlWBwGZ1cP-75" style="edgeStyle=orthogonalEdgeStyle;rounded=0;orthogonalLoop=1;jettySize=auto;html=1;entryX=1;entryY=0.5;entryDx=0;entryDy=0;" parent="1" target="-dpQ9DcZk-ZlWBwGZ1cP-6" edge="1">
          <mxGeometry relative="1" as="geometry">
            <Array as="points">
              <mxPoint x="850" y="480" />
              <mxPoint x="850" y="315" />
            </Array>
            <mxPoint x="817" y="480" as="sourcePoint" />
          </mxGeometry>
        </mxCell>
        <mxCell id="-dpQ9DcZk-ZlWBwGZ1cP-76" value="&lt;font style=&quot;font-size: 14px; color: rgb(255, 51, 51);&quot;&gt;res_id: 0x7cxxxxxx&lt;/font&gt;" style="text;html=1;align=center;verticalAlign=middle;resizable=0;points=[];autosize=1;strokeColor=none;fillColor=none;" parent="1" vertex="1">
          <mxGeometry x="8" y="249" width="140" height="30" as="geometry" />
        </mxCell>
        <mxCell id="-dpQ9DcZk-ZlWBwGZ1cP-77" value="&lt;font style=&quot;font-size: 14px; color: rgb(255, 51, 51);&quot;&gt;res_id: 0x7fxxxxxx&lt;/font&gt;" style="text;html=1;align=center;verticalAlign=middle;resizable=0;points=[];autosize=1;strokeColor=none;fillColor=none;" parent="1" vertex="1">
          <mxGeometry x="8" y="530" width="140" height="30" as="geometry" />
        </mxCell>
        <mxCell id="P3hpPFlZgY3cbZgGFmEt-4" value="" style="group" vertex="1" connectable="0" parent="1">
          <mxGeometry x="138" y="620" width="120" height="140" as="geometry" />
        </mxCell>
        <mxCell id="P3hpPFlZgY3cbZgGFmEt-5" value="" style="rounded=0;whiteSpace=wrap;html=1;fillColor=#fad7ac;strokeColor=#b46504;container=0;" vertex="1" parent="P3hpPFlZgY3cbZgGFmEt-4">
          <mxGeometry width="120" height="110" as="geometry" />
        </mxCell>
        <mxCell id="P3hpPFlZgY3cbZgGFmEt-6" value="&lt;span style=&quot;font-size: 18px;&quot;&gt;游戏&lt;/span&gt;" style="text;html=1;align=center;verticalAlign=middle;resizable=0;points=[];autosize=1;strokeColor=none;fillColor=none;container=0;" vertex="1" parent="P3hpPFlZgY3cbZgGFmEt-4">
          <mxGeometry x="30" width="60" height="40" as="geometry" />
        </mxCell>
        <mxCell id="P3hpPFlZgY3cbZgGFmEt-7" value="&lt;span style=&quot;font-size: 14px;&quot;&gt;so&lt;/span&gt;" style="rounded=0;whiteSpace=wrap;html=1;fillColor=#e3c800;fontColor=#000000;strokeColor=none;" vertex="1" parent="P3hpPFlZgY3cbZgGFmEt-4">
          <mxGeometry x="5" y="60" width="110" height="40" as="geometry" />
        </mxCell>
        <mxCell id="P3hpPFlZgY3cbZgGFmEt-9" style="edgeStyle=orthogonalEdgeStyle;rounded=0;orthogonalLoop=1;jettySize=auto;html=1;entryX=0.15;entryY=1;entryDx=0;entryDy=0;entryPerimeter=0;" edge="1" parent="1" source="P3hpPFlZgY3cbZgGFmEt-6" target="-dpQ9DcZk-ZlWBwGZ1cP-56">
          <mxGeometry relative="1" as="geometry" />
        </mxCell>
      </root>
    </mxGraphModel>
  </diagram>
</mxfile>
